<?xml version="1.0" standalone="no"?>
<!DOCTYPE svg PUBLIC "-//W3C//DTD SVG 20010904//EN"
 "http://www.w3.org/TR/2001/REC-SVG-20010904/DTD/svg10.dtd">
<svg version="1.0" xmlns="http://www.w3.org/2000/svg"
 width="500.000000pt" height="500.000000pt" viewBox="0 0 500.000000 500.000000"
 preserveAspectRatio="xMidYMid meet">

<g transform="translate(0.000000,500.000000) scale(0.100000,-0.100000)"
fill="#000000" stroke="none">
<path d="M3097 3663 c-2 -1 -93 -3 -203 -5 -109 -1 -191 -3 -182 -6 14 -3 15
-6 6 -16 -7 -7 -20 -11 -29 -9 -9 3 -20 0 -23 -6 -4 -6 -16 -11 -28 -11 -14 0
-18 -5 -14 -15 4 -11 -2 -15 -25 -15 -17 0 -40 -5 -52 -12 -12 -6 -29 -12 -37
-13 -8 -1 -25 -5 -37 -9 -16 -5 -23 -3 -23 6 0 8 -5 6 -11 -5 -6 -9 -14 -15
-20 -12 -16 10 -10 -7 7 -20 14 -10 9 -12 -27 -15 -85 -5 -94 -7 -124 -20 -16
-7 -39 -12 -50 -11 -17 2 -18 0 -5 -9 11 -8 4 -10 -32 -7 -26 2 -45 0 -42 -5
5 -8 -5 -9 -75 -8 -18 0 -40 -5 -47 -11 -8 -6 -14 -7 -14 -2 0 5 -16 9 -35 10
-31 1 -33 -1 -19 -14 8 -8 21 -12 29 -9 8 3 15 0 15 -5 0 -7 -10 -9 -27 -4
-16 4 -46 8 -68 9 -30 2 -31 2 -5 -1 78 -10 43 -19 -65 -18 -68 1 -115 -3
-115 -9 0 -5 3 -6 7 -3 3 4 12 2 19 -4 9 -7 19 -7 33 1 15 8 21 8 21 0 0 -6 5
-8 12 -4 8 5 9 2 5 -9 -8 -21 -3 -21 17 -1 10 10 16 11 16 3 0 -9 4 -8 15 1
11 9 15 9 15 1 0 -6 -10 -16 -22 -21 -14 -5 -17 -9 -8 -10 8 0 2 -8 -15 -17
-16 -10 -33 -16 -37 -15 -5 1 -8 -3 -8 -9 0 -5 -4 -8 -9 -4 -6 3 -13 -11 -17
-31 -3 -19 -13 -38 -20 -41 -22 -8 -6 -22 18 -15 14 3 19 2 14 -6 -10 -17 -32
-15 -50 4 -17 16 -21 8 -16 -26 2 -12 -3 -11 -19 4 -12 11 -21 14 -21 8 0 -6
-3 -18 -7 -28 -4 -11 -3 -15 5 -10 6 4 17 -5 26 -21 10 -19 15 -22 16 -11 0 9
4 19 9 23 6 3 9 -3 9 -12 0 -10 3 -27 7 -38 6 -17 5 -17 -5 -5 -9 12 -10 10
-6 -12 4 -16 2 -28 -4 -28 -5 0 -9 3 -8 8 3 14 -25 62 -38 62 -7 0 -15 6 -17
13 -3 7 -6 4 -6 -6 -1 -11 -6 -15 -12 -11 -8 4 -9 0 -4 -15 4 -15 2 -20 -7
-18 -7 2 -10 2 -6 0 5 -3 3 -13 -2 -24 -9 -15 -8 -17 6 -12 12 4 15 2 12 -8
-3 -8 -13 -14 -23 -14 -12 0 -22 -10 -26 -25 -13 -46 -11 -49 22 -40 31 9 31
9 15 -15 -21 -32 -20 -37 7 -30 19 5 20 4 5 -5 -18 -11 -51 -1 -49 14 1 4 -5
13 -13 21 -12 13 -15 13 -20 0 -3 -8 -14 -12 -26 -10 -16 3 -20 0 -17 -10 3
-7 -1 -16 -9 -19 -19 -7 -8 -26 14 -25 14 0 13 2 -3 9 -14 6 -16 9 -5 10 8 2
19 2 24 1 5 -1 6 5 2 14 -3 10 -2 13 5 10 5 -4 7 -15 4 -25 -3 -11 0 -20 10
-24 25 -9 17 -24 -26 -52 -40 -25 -41 -25 -62 -7 -21 17 -21 17 -7 0 12 -16
12 -20 -1 -27 -11 -8 -12 -11 -1 -22 11 -11 13 -10 10 1 -2 7 3 16 11 19 8 2
11 1 9 -4 -3 -5 -1 -20 4 -34 10 -24 11 -24 18 -5 4 12 3 23 -4 28 -7 5 -3 14
14 26 14 11 27 18 29 15 3 -2 -4 -11 -15 -19 -10 -8 -14 -15 -7 -15 7 0 11
-12 10 -27 -2 -31 -4 -31 118 -20 136 12 313 90 415 183 14 12 32 24 40 26 8
2 36 41 62 87 122 215 261 350 479 465 138 73 284 120 449 145 74 11 146 22
160 25 14 2 -17 4 -68 3 -51 0 -94 -2 -95 -4z m-1029 -260 c-10 -2 -28 -2 -40
0 -13 2 -5 4 17 4 22 1 32 -1 23 -4z m135 0 c-7 -2 -19 -2 -25 0 -7 3 -2 5 12
5 14 0 19 -2 13 -5z m94 1 c-3 -3 -12 -4 -19 -1 -8 3 -5 6 6 6 11 1 17 -2 13
-5z m-362 -42 c-11 -2 -23 -9 -27 -16 -5 -6 -8 -3 -8 10 0 18 4 20 28 16 22
-5 24 -7 7 -10z m-94 -79 c13 -16 12 -17 -3 -4 -14 11 -18 11 -18 1 0 -8 -3
-11 -6 -7 -5 5 3 27 10 27 2 0 10 -8 17 -17z m-40 -58 c-4 -17 -6 -15 -11 10
-4 17 -4 34 -1 39 7 15 18 -27 12 -49z m19 -30 c-7 -9 -15 -13 -17 -11 -7 7 7
26 19 26 6 0 6 -6 -2 -15z m-71 -19 c19 -14 28 -27 22 -31 -6 -3 -11 -1 -11 4
0 6 -4 11 -10 11 -5 0 -7 -8 -3 -17 5 -16 4 -15 -9 1 -10 13 -17 16 -22 7 -5
-8 -11 -7 -22 3 -18 19 -18 32 0 17 16 -13 32 2 21 19 -9 15 -2 12 34 -14z
m45 -62 c3 -8 2 -12 -4 -9 -6 3 -10 10 -10 16 0 14 7 11 14 -7z m-113 -16 c6
-52 3 -75 -8 -71 -11 4 -17 -11 -15 -37 0 -3 -12 -5 -27 -5 -16 -1 -28 5 -28
12 0 7 6 13 12 13 20 0 40 29 28 41 -7 7 -7 18 1 35 12 25 35 33 37 12z m89
-6 c0 -5 -7 -17 -15 -28 -14 -18 -14 -17 -4 9 12 27 19 34 19 19z m-107 -145
c3 -8 -1 -14 -9 -14 -15 0 -18 9 -7 20 9 9 10 9 16 -6z m-93 -17 c0 -5 -5 -10
-11 -10 -5 0 -7 5 -4 10 3 6 8 10 11 10 2 0 4 -4 4 -10z m7 -35 c0 -8 -4 -12
-9 -9 -4 3 -8 9 -8 15 0 5 4 9 8 9 5 0 9 -7 9 -15z m44 -18 c-6 -8 -8 -17 -4
-21 4 -4 0 -4 -10 0 -14 5 -15 9 -6 20 6 8 16 14 21 14 7 0 6 -5 -1 -13z"/>
<path d="M1664 3076 c-3 -9 -11 -13 -18 -9 -6 4 -4 -1 3 -11 14 -17 15 -17 23
5 5 12 6 24 3 27 -2 3 -7 -3 -11 -12z"/>
<path d="M4029 3666 c-3 -3 -119 -6 -257 -7 -140 0 -252 -4 -252 -9 0 -5 7 -7
15 -4 11 5 13 2 9 -10 -3 -9 -1 -16 4 -16 6 0 13 8 15 18 3 12 5 13 6 2 0 -8
-4 -22 -9 -30 -9 -13 -11 -13 -20 0 -9 13 -13 12 -30 -9 -11 -13 -24 -21 -28
-17 -4 4 1 13 11 20 19 14 23 46 6 46 -5 0 -8 -4 -5 -9 9 -15 -19 -31 -43 -24
-15 4 -21 11 -18 22 3 11 -2 17 -14 17 -13 0 -15 -3 -7 -13 8 -10 6 -13 -7
-13 -14 0 -15 -3 -5 -15 6 -8 8 -20 4 -27 -5 -7 -9 -20 -9 -29 -1 -14 2 -15
16 -6 13 8 16 19 12 41 l-6 31 27 -24 c26 -25 28 -44 2 -22 -13 11 -13 8 -4
-21 6 -18 14 -40 18 -48 9 -19 -14 -88 -24 -72 -4 7 -4 17 -1 22 3 6 1 10 -4
10 -6 0 -11 -6 -11 -12 0 -9 -4 -8 -10 2 -6 9 -10 10 -10 3 0 -6 5 -15 10 -18
13 -8 13 -25 1 -25 -5 0 -13 9 -16 20 -3 11 -11 20 -16 20 -6 0 -7 -4 -4 -10
3 -5 1 -19 -5 -30 -7 -13 -7 -20 0 -20 11 0 14 -39 4 -64 -3 -9 -11 -13 -18
-10 -6 3 0 -4 14 -16 23 -20 25 -21 31 -3 7 16 8 15 8 -4 1 -15 -5 -23 -16
-23 -14 0 -15 -2 -4 -12 10 -11 16 -8 31 12 25 32 25 41 -1 47 -16 4 -18 8 -7
14 11 7 10 11 -2 18 -8 6 -11 13 -7 17 4 4 13 2 19 -4 14 -14 32 -16 23 -2 -4
6 1 7 11 3 15 -5 14 -8 -5 -22 l-22 -17 26 -2 c15 -1 24 2 20 8 -3 6 -1 10 4
10 18 0 12 -17 -11 -34 l-23 -17 26 4 c21 3 25 0 22 -14 -5 -17 -7 -17 -29 -2
-20 12 -24 13 -24 1 0 -15 -26 -41 -52 -51 -12 -4 -15 -2 -12 7 3 7 -2 16 -10
19 -9 4 -16 2 -16 -3 0 -6 4 -10 10 -10 5 0 6 -8 3 -17 -5 -12 -2 -15 10 -10
9 3 23 -1 32 -9 10 -10 24 -14 40 -10 33 8 32 -2 -1 -15 -20 -7 -31 -6 -43 4
-23 20 -49 28 -56 17 -3 -5 -1 -11 4 -15 6 -3 6 -17 -1 -36 -8 -23 -13 -27
-23 -19 -9 7 -15 7 -19 1 -4 -5 -15 -8 -26 -6 -13 3 -20 -2 -20 -12 0 -10 6
-13 16 -9 10 4 25 -1 35 -10 20 -18 26 -7 9 14 -7 9 -7 9 1 3 15 -12 54 34 43
50 -5 8 -3 9 6 4 10 -6 12 -4 6 10 -7 18 -6 18 13 1 22 -20 48 -81 29 -70 -5
4 -14 0 -19 -7 -6 -9 -9 -10 -9 -2 0 6 4 14 9 17 11 7 3 46 -9 46 -5 0 -6 -10
-4 -22 2 -13 2 -17 -2 -10 -3 6 -10 9 -15 6 -6 -4 -6 -10 0 -18 5 -6 13 -25
16 -41 3 -17 7 -36 9 -42 1 -7 12 -23 24 -36 26 -27 27 -34 8 -34 -8 0 -12 6
-9 13 5 14 -32 38 -47 29 -5 -3 -11 -1 -14 4 -4 5 3 13 15 16 11 4 18 10 14
13 -9 9 -55 10 -55 1 0 -4 -8 -7 -18 -6 -12 0 -18 9 -18 24 0 12 2 20 6 17 3
-3 5 -10 5 -15 0 -5 3 -9 8 -9 4 0 9 0 12 0 3 0 1 9 -5 20 -6 11 -19 20 -30
20 -15 0 -18 -6 -15 -30 4 -35 0 -38 -16 -9 -7 15 -8 19 0 15 7 -5 8 -1 4 10
-4 11 -8 13 -11 6 -6 -18 -22 -14 -23 6 0 11 -2 12 -6 4 -3 -7 0 -19 6 -26 8
-9 7 -18 -5 -32 -15 -18 -15 -18 -9 3 4 16 0 25 -15 33 -12 6 -26 9 -33 6 -7
-2 -5 -5 4 -5 9 -1 22 -7 28 -15 9 -11 6 -17 -15 -31 -14 -9 -23 -19 -20 -22
3 -3 12 -1 19 5 10 9 18 8 31 -1 16 -12 16 -14 2 -26 -18 -15 -21 -31 -5 -31
5 0 8 3 6 8 -15 24 58 37 84 15 17 -14 62 -6 53 9 -3 5 -15 6 -27 3 -20 -5
-20 -4 1 7 19 9 25 9 33 -3 7 -12 9 -12 9 0 0 8 3 12 6 9 10 -10 -20 -48 -34
-43 -8 3 -12 0 -9 -7 2 -7 13 -12 23 -10 18 3 18 3 -1 -12 -14 -10 -21 -11
-24 -3 -7 19 -28 37 -36 29 -4 -4 -5 -2 -3 5 3 10 -1 13 -21 13 -5 0 -11 -9
-14 -21 -4 -16 -2 -19 10 -15 18 7 46 -12 37 -25 -3 -5 -9 -7 -14 -4 -4 3 -13
-2 -20 -10 -11 -13 -8 -14 19 -9 20 4 31 3 31 -5 0 -6 15 -21 34 -32 25 -15
33 -25 29 -40 -5 -19 -5 -19 38 0 75 32 128 64 123 73 -3 4 1 5 9 3 42 -17
341 268 397 378 12 23 37 67 55 97 34 56 113 275 103 285 -8 9 -72 18 -79 11z
m-424 -26 c3 -5 1 -10 -4 -10 -6 0 -11 5 -11 10 0 6 2 10 4 10 3 0 8 -4 11
-10z m83 -34 c-2 -1 -10 -7 -19 -14 -13 -10 -19 -10 -28 1 -8 11 -5 14 19 14
17 0 29 -1 28 -1z m-94 -22 c5 -14 4 -15 -9 -4 -17 14 -19 20 -6 20 5 0 12 -7
15 -16z m121 6 c3 -5 1 -10 -4 -10 -6 0 -11 5 -11 10 0 6 2 10 4 10 3 0 8 -4
11 -10z m-220 -69 c-10 -10 -34 10 -29 24 6 14 8 13 19 -2 8 -10 12 -20 10
-22z m35 -21 c0 -5 -5 -10 -11 -10 -5 0 -7 5 -4 10 3 6 8 10 11 10 2 0 4 -4 4
-10z m-105 -88 c19 10 19 10 3 -7 -14 -15 -20 -16 -32 -5 -9 7 -16 18 -16 24
0 6 6 4 13 -6 10 -12 17 -14 32 -6z m98 -37 c4 -8 1 -17 -5 -21 -7 -4 -8 -3
-4 4 4 7 2 12 -4 12 -6 0 -8 5 -5 10 8 14 12 13 18 -5z m-80 -139 c4 -10 1
-13 -8 -9 -8 3 -12 9 -9 14 7 12 11 11 17 -5z m12 -76 c-3 -5 -10 -10 -16 -10
-5 0 -9 5 -9 10 0 6 7 10 16 10 8 0 12 -4 9 -10z m25 -10 c0 -5 -5 -10 -11
-10 -5 0 -7 5 -4 10 3 6 8 10 11 10 2 0 4 -4 4 -10z m-213 -137 c-13 -18 -28
-16 -21 2 5 11 2 13 -11 9 -15 -6 -15 -4 -5 13 12 18 14 19 30 4 11 -11 14
-20 7 -28z m48 7 c3 -5 -1 -10 -10 -10 -9 0 -13 5 -10 10 3 6 8 10 10 10 2 0
7 -4 10 -10z m98 -85 c-10 -7 -20 -12 -23 -11 -3 2 -13 -5 -22 -16 -10 -10
-13 -18 -7 -18 5 0 7 -5 4 -10 -6 -10 -35 11 -35 26 0 4 3 5 6 1 3 -3 17 6 30
20 13 14 24 20 24 14 0 -7 5 -9 11 -6 7 5 4 14 -8 28 l-18 20 28 -18 c25 -16
26 -18 10 -30z"/>
<path d="M3370 3650 c0 -5 5 -10 11 -10 5 0 7 5 4 10 -3 6 -8 10 -11 10 -2 0
-4 -4 -4 -10z"/>
<path d="M3298 3643 c7 -3 16 -2 19 1 4 3 -2 6 -13 5 -11 0 -14 -3 -6 -6z"/>
<path d="M3327 3623 c-3 -5 1 -14 9 -21 12 -10 14 -10 14 2 0 17 -16 30 -23
19z"/>
<path d="M3362 3580 c-7 -11 -9 -20 -4 -20 4 0 13 9 20 20 7 11 9 20 4 20 -4
0 -13 -9 -20 -20z"/>
<path d="M3290 3574 c0 -8 5 -12 10 -9 6 4 8 11 5 16 -9 14 -15 11 -15 -7z"/>
<path d="M3307 3518 c10 -21 24 -38 31 -38 17 0 16 2 -19 41 l-31 34 19 -37z"/>
<path d="M3423 3533 c0 -10 7 -27 15 -38 14 -19 14 -19 8 5 -3 14 -6 31 -6 38
0 19 -17 14 -17 -5z"/>
<path d="M3395 3511 c-4 -12 -4 -25 -1 -28 3 -4 6 0 6 8 0 12 2 12 10 -1 15
-23 20 -7 5 19 l-13 24 -7 -22z"/>
<path d="M3256 3485 c4 -8 10 -15 15 -15 4 0 6 7 3 15 -4 8 -10 15 -15 15 -4
0 -6 -7 -3 -15z"/>
<path d="M3165 3440 c3 -5 8 -10 11 -10 2 0 4 5 4 10 0 6 -5 10 -11 10 -5 0
-7 -4 -4 -10z"/>
<path d="M3202 3435 c-17 -19 -1 -19 24 0 14 11 15 14 4 14 -8 0 -21 -6 -28
-14z"/>
<path d="M3286 3431 c-15 -6 -16 -9 -5 -13 8 -3 20 1 27 8 14 15 7 17 -22 5z"/>
<path d="M3269 3396 c10 -12 8 -17 -7 -25 -11 -6 -23 -7 -27 -3 -5 4 -5 1 -1
-6 5 -8 13 -9 25 -2 10 5 22 6 26 2 5 -4 5 -1 0 7 -6 10 -2 11 15 6 20 -6 21
-5 9 8 -8 8 -17 13 -21 10 -5 -2 -8 1 -8 6 0 6 -5 11 -11 11 -8 0 -8 -4 0 -14z"/>
<path d="M1676 3383 c-6 -14 -5 -15 5 -6 7 7 10 15 7 18 -3 3 -9 -2 -12 -12z"/>
<path d="M1600 3381 c0 -5 7 -14 15 -21 10 -9 15 -9 15 -1 0 6 -5 11 -11 11
-5 0 -7 5 -4 10 3 6 1 10 -4 10 -6 0 -11 -4 -11 -9z"/>
<path d="M1645 3380 c3 -5 8 -10 11 -10 2 0 4 5 4 10 0 6 -5 10 -11 10 -5 0
-7 -4 -4 -10z"/>
<path d="M3330 3381 c0 -5 5 -11 12 -13 7 -3 8 -10 4 -17 -7 -11 -10 -11 -17
0 -7 11 -9 10 -9 -3 0 -10 0 -21 1 -24 2 -15 -26 -22 -45 -12 -19 10 -20 10
-7 -5 9 -11 21 -15 37 -11 14 4 24 2 24 -4 0 -6 9 -10 20 -9 11 1 19 6 17 12
-2 5 -11 9 -21 7 -22 -4 -20 14 3 35 16 13 17 19 8 34 -12 20 -27 25 -27 10z"/>
<path d="M1755 3350 c4 -6 11 -7 17 -4 7 5 9 0 6 -14 -4 -14 -2 -19 8 -15 24
9 6 42 -24 43 -7 0 -10 -5 -7 -10z"/>
<path d="M3191 3351 c-10 -7 -7 -9 12 -8 14 1 23 5 20 10 -6 9 -15 9 -32 -2z"/>
<path d="M1425 3340 c-3 -6 1 -7 9 -4 18 7 21 14 7 14 -6 0 -13 -4 -16 -10z"/>
<path d="M3288 3343 c7 -3 16 -2 19 1 4 3 -2 6 -13 5 -11 0 -14 -3 -6 -6z"/>
<path d="M3240 3320 c-6 -11 -9 -20 -8 -20 2 0 11 9 21 20 9 11 13 20 7 20 -5
0 -14 -9 -20 -20z"/>
<path d="M1747 3323 c-4 -3 -7 -11 -7 -17 0 -6 5 -5 12 2 6 6 9 14 7 17 -3 3
-9 2 -12 -2z"/>
<path d="M3210 3315 c0 -8 2 -15 4 -15 2 0 6 7 10 15 3 8 1 15 -4 15 -6 0 -10
-7 -10 -15z"/>
<path d="M3145 3300 c-3 -6 1 -7 9 -4 18 7 21 14 7 14 -6 0 -13 -4 -16 -10z"/>
<path d="M1706 3288 c3 -5 10 -6 15 -3 13 9 11 12 -6 12 -8 0 -12 -4 -9 -9z"/>
<path d="M1270 3260 l-25 -21 28 12 c15 7 27 16 27 21 0 11 -1 10 -30 -12z"/>
<path d="M3190 3270 c0 -5 5 -10 11 -10 5 0 7 5 4 10 -3 6 -8 10 -11 10 -2 0
-4 -4 -4 -10z"/>
<path d="M3308 3258 c4 -16 2 -19 -9 -13 -11 7 -11 5 1 -10 14 -17 13 -18 -8
-13 -19 5 -21 4 -11 -8 9 -11 15 -12 25 -3 8 6 14 8 14 5 0 -4 6 -1 14 6 8 7
12 17 9 22 -3 4 -10 2 -15 -5 -7 -10 -8 -8 -5 8 3 12 -1 24 -8 27 -9 3 -11 -2
-7 -16z"/>
<path d="M3264 3259 c-3 -6 -15 -9 -25 -6 -11 3 -17 1 -14 -4 9 -13 55 -7 55
8 0 16 -7 17 -16 2z"/>
<path d="M3202 3226 c7 -8 15 -12 17 -11 5 6 -10 25 -20 25 -5 0 -4 -6 3 -14z"/>
<path d="M1201 3209 c-13 -11 -22 -22 -19 -24 2 -3 15 6 28 20 28 30 24 32 -9
4z"/>
<path d="M3180 3210 c-9 -6 -10 -10 -3 -10 6 0 15 5 18 10 8 12 4 12 -15 0z"/>
<path d="M3240 3209 c0 -5 5 -7 10 -4 6 3 10 8 10 11 0 2 -4 4 -10 4 -5 0 -10
-5 -10 -11z"/>
<path d="M3212 3184 c-7 -8 -17 -12 -23 -9 -5 4 -9 1 -9 -4 0 -17 45 -6 48 12
4 21 1 21 -16 1z"/>
<path d="M1640 3180 c-9 -6 -10 -10 -3 -10 6 0 15 5 18 10 8 12 4 12 -15 0z"/>
<path d="M3247 3173 c3 -14 13 -23 24 -23 20 0 26 15 9 25 -5 3 -10 1 -10 -6
0 -7 -7 -4 -15 7 -14 18 -14 18 -8 -3z"/>
<path d="M1570 3109 c0 -5 5 -7 10 -4 6 3 10 8 10 11 0 2 -4 4 -10 4 -5 0 -10
-5 -10 -11z"/>
<path d="M3340 3100 c-11 -21 -6 -40 11 -40 5 0 6 12 3 26 -5 21 -4 25 6 19 9
-5 11 -4 6 3 -10 16 -14 15 -26 -8z"/>
<path d="M3195 3100 c3 -5 8 -10 11 -10 2 0 4 5 4 10 0 6 -5 10 -11 10 -5 0
-7 -4 -4 -10z"/>
<path d="M1063 3078 c-20 -26 -26 -41 -15 -34 12 7 36 46 29 46 -3 0 -9 -6
-14 -12z"/>
<path d="M1524 3062 c3 -6 -2 -13 -11 -15 -16 -4 -16 -5 -1 -6 21 -1 32 15 17
25 -7 4 -9 3 -5 -4z"/>
<path d="M1550 3068 c0 -2 9 -11 19 -20 18 -15 20 -15 26 0 3 9 3 13 -1 10 -4
-4 -15 -3 -25 3 -11 5 -19 8 -19 7z"/>
<path d="M1550 3015 c0 -2 7 -8 15 -15 12 -10 15 -10 15 2 0 8 -7 15 -15 15
-8 0 -15 -1 -15 -2z"/>
<path d="M3185 3000 c-3 -5 -1 -10 4 -10 6 0 11 5 11 10 0 6 -2 10 -4 10 -3 0
-8 -4 -11 -10z"/>
<path d="M986 2967 c3 -10 9 -15 12 -12 3 3 0 11 -7 18 -10 9 -11 8 -5 -6z"/>
<path d="M3234 2965 c-4 -8 -4 -22 0 -30 3 -8 2 -14 -2 -14 -19 3 -23 -2 -13
-15 10 -12 8 -14 -13 -12 -14 1 -32 8 -41 16 -25 21 -25 7 1 -25 13 -16 24
-24 24 -17 0 6 8 12 18 12 12 0 8 -6 -13 -20 -17 -11 -23 -20 -15 -20 13 0 13
-1 0 -10 -10 -7 -11 -10 -2 -10 7 0 15 7 18 15 4 8 10 13 14 10 5 -3 11 -1 15
5 3 5 11 10 17 10 6 0 8 -3 5 -6 -3 -4 -2 -16 4 -28 10 -20 10 -20 -5 -2 -14
18 -17 18 -28 5 -20 -24 -65 -49 -90 -50 -13 0 -18 -3 -11 -5 7 -3 11 -11 9
-17 -1 -7 -1 -9 1 -5 3 4 17 5 33 2 31 -7 70 9 51 20 -6 4 -11 3 -11 -1 0 -5
-12 -9 -27 -10 l-28 -1 28 12 c15 7 24 15 21 19 -4 4 -2 7 4 7 7 0 12 -4 12
-9 0 -5 13 -12 30 -16 26 -6 48 -2 119 21 11 4 10 9 -5 27 -14 15 -14 18 -2 9
10 -8 19 -9 22 -3 4 5 -4 13 -16 17 -12 3 -30 16 -41 28 -18 20 -18 20 -13 1
5 -17 4 -18 -6 -5 -7 8 -23 14 -35 12 -28 -4 -30 14 -3 30 25 16 26 26 3 24
-13 -1 -18 6 -17 22 2 25 -4 29 -12 7z m53 -134 c7 -11 20 -21 30 -24 10 -2 6
-3 -9 -1 -15 2 -29 -1 -32 -7 -2 -5 -3 -4 -2 3 2 7 -1 21 -6 31 -12 23 4 22
19 -2z m-32 -41 c3 -5 1 -10 -4 -10 -6 0 -11 5 -11 10 0 6 2 10 4 10 3 0 8 -4
11 -10z"/>
<path d="M1466 2952 c-3 -4 4 -9 15 -9 23 -2 25 3 4 10 -8 4 -16 3 -19 -1z"/>
<path d="M3188 2943 c6 -2 18 -2 25 0 6 3 1 5 -13 5 -14 0 -19 -2 -12 -5z"/>
<path d="M1419 2913 c-13 -16 -12 -17 4 -4 9 7 17 15 17 17 0 8 -8 3 -21 -13z"/>
<path d="M3075 2910 c27 -12 43 -12 25 0 -8 5 -22 9 -30 9 -10 0 -8 -3 5 -9z"/>
<path d="M3016 2881 c2 -2 -4 -10 -14 -18 -11 -9 -5 -8 18 3 45 21 46 22 16
20 -13 0 -23 -3 -20 -5z"/>
<path d="M3117 2876 c-4 -10 -1 -13 10 -9 8 3 19 0 24 -8 7 -11 9 -11 9 2 0 9
-7 20 -16 23 -21 8 -21 8 -27 -8z"/>
<path d="M1360 2866 c0 -3 9 -10 20 -16 11 -6 20 -8 20 -6 0 3 -9 10 -20 16
-11 6 -20 8 -20 6z"/>
<path d="M1471 2856 c-9 -10 -8 -16 4 -26 13 -11 22 -10 50 3 19 9 35 22 34
29 0 10 -2 10 -6 1 -2 -7 -9 -13 -14 -13 -6 0 -7 5 -4 10 10 16 -11 12 -25 -5
-7 -8 -20 -15 -28 -15 -13 0 -12 3 4 15 10 8 14 15 8 15 -6 0 -17 -6 -23 -14z"/>
<path d="M3140 2830 c-9 -6 -10 -10 -3 -10 6 0 15 5 18 10 8 12 4 12 -15 0z"/>
<path d="M3128 2793 c7 -3 16 -2 19 1 4 3 -2 6 -13 5 -11 0 -14 -3 -6 -6z"/>
<path d="M1406 2767 c3 -10 9 -15 12 -12 3 3 0 11 -7 18 -10 9 -11 8 -5 -6z"/>
<path d="M1437 2752 c1 -8 3 -16 3 -18 0 -3 5 -2 10 1 6 3 10 1 10 -4 0 -6 5
-11 10 -11 6 0 10 7 10 15 0 8 -9 15 -19 15 -11 0 -21 3 -24 8 -2 4 -2 1 0 -6z"/>
<path d="M2986 2755 c-4 -11 2 -15 22 -14 17 1 20 3 9 6 -9 2 -15 9 -12 14 4
5 2 9 -3 9 -6 0 -12 -7 -16 -15z"/>
<path d="M3063 2763 c-18 -7 -16 -23 3 -23 8 0 13 4 10 9 -4 5 0 12 6 14 7 3
9 5 3 5 -5 0 -16 -2 -22 -5z"/>
<path d="M1235 2750 c-3 -5 -1 -10 4 -10 6 0 11 5 11 10 0 6 -2 10 -4 10 -3 0
-8 -4 -11 -10z"/>
<path d="M2945 2750 c-19 -8 -19 -9 3 -9 12 -1 22 4 22 9 0 6 -1 10 -2 9 -2 0
-12 -4 -23 -9z"/>
<path d="M2765 2723 c-139 -16 -267 -66 -363 -143 -29 -22 -55 -39 -59 -38 -5
2 -10 -1 -11 -7 -2 -5 -25 -32 -51 -60 -26 -27 -55 -62 -65 -77 -10 -15 -23
-25 -29 -21 -5 3 -8 2 -4 -3 3 -5 -10 -36 -28 -68 -18 -32 -35 -54 -37 -49 -3
4 -3 2 -1 -5 1 -7 -9 -41 -23 -74 -41 -98 -71 -270 -44 -253 6 3 10 -2 10 -12
0 -15 2 -16 10 -3 6 9 5 17 -3 22 -9 6 -7 12 6 22 9 7 17 18 17 24 0 5 14 15
30 21 27 9 30 8 30 -10 0 -11 4 -18 8 -15 5 3 9 -8 9 -23 0 -20 -4 -28 -14
-24 -9 4 -11 0 -7 -11 3 -9 1 -23 -6 -31 -6 -8 -9 -18 -6 -23 3 -6 -1 -15 -9
-22 -19 -16 -19 -30 -1 -30 8 0 13 -6 12 -14 -3 -25 -27 -45 -44 -39 -15 5
-14 3 2 -15 16 -18 16 -22 4 -22 -9 0 -18 -9 -21 -21 -4 -13 -10 -18 -18 -14
-7 5 -10 3 -7 -5 2 -8 -4 -22 -14 -32 -13 -13 -18 -33 -18 -79 0 -58 1 -60 23
-54 12 4 42 19 67 33 277 158 460 474 460 795 0 101 9 97 12 -6 1 -42 5 -71 9
-65 4 7 5 17 2 23 -4 6 -2 6 6 -1 12 -11 5 -44 -10 -44 -5 0 -9 -8 -8 -17 0
-11 3 -13 6 -5 2 6 9 10 14 7 4 -3 11 6 15 20 3 13 10 22 15 19 5 -3 2 -16 -7
-29 -15 -24 -15 -25 7 -35 22 -10 22 -10 -6 -5 -25 4 -28 3 -14 -7 9 -7 14
-20 12 -28 -3 -10 -1 -9 7 3 6 9 16 17 22 17 9 0 9 -3 0 -12 -14 -14 -16 -32
-2 -23 5 3 7 0 4 -8 -3 -8 -1 -18 5 -22 8 -4 8 -12 1 -25 -8 -16 -8 -18 5 -14
8 4 15 10 15 14 0 5 10 6 21 3 20 -6 20 -7 -7 -19 -24 -10 -26 -13 -8 -13 28
-1 36 -11 23 -28 -9 -10 -8 -13 5 -13 9 0 16 -5 16 -10 0 -7 -6 -7 -19 0 -11
5 -30 10 -43 9 -23 -1 -23 -1 2 -8 15 -4 20 -10 13 -14 -6 -4 -9 -17 -6 -30 5
-22 5 -22 -12 -2 -15 18 -16 18 -11 2 3 -10 6 -23 6 -28 0 -4 7 -6 15 -3 8 4
15 1 15 -6 0 -6 -4 -8 -10 -5 -5 3 -10 -2 -10 -11 0 -16 -1 -16 -15 2 -14 18
-15 16 -11 -21 3 -22 3 -32 0 -23 -6 19 -54 54 -54 39 0 -5 9 -12 19 -16 10
-3 22 -16 25 -28 8 -32 7 -49 -3 -43 -5 4 -7 -3 -4 -14 3 -11 10 -20 15 -20 6
0 8 6 5 13 -3 8 -1 20 4 28 6 10 9 4 9 -18 0 -18 -4 -33 -9 -33 -11 0 -43 -61
-36 -68 3 -3 5 0 5 6 0 7 15 12 37 12 41 0 41 -9 0 -12 -16 -1 -29 -10 -33
-20 -3 -10 -9 -16 -14 -13 -4 3 -10 -2 -14 -10 -8 -23 13 -18 36 8 15 17 18
18 14 5 -3 -10 -1 -18 5 -18 6 0 7 -5 4 -10 -4 -6 -10 -8 -15 -5 -5 3 -18 1
-28 -4 -13 -7 -22 -7 -30 1 -7 7 -14 9 -18 5 -3 -3 7 -14 23 -24 27 -16 28
-19 14 -33 -9 -8 -15 -13 -14 -11 4 6 -29 35 -55 48 -22 12 -23 11 -12 -2 7
-8 19 -15 26 -15 20 0 17 -17 -3 -29 -10 -5 -14 -13 -10 -17 4 -4 14 1 22 12
17 23 20 5 4 -30 -13 -29 -39 -24 -40 8 0 20 -1 20 -8 1 -6 -15 -2 -26 15 -42
28 -26 29 -30 10 -30 -8 0 -12 6 -9 15 5 12 3 12 -18 1 -13 -7 -27 -12 -31
-11 -5 1 -8 -4 -8 -12 0 -8 -7 -16 -15 -20 -8 -3 -15 -10 -15 -16 0 -6 15 0
33 14 l32 25 22 -34 c24 -37 9 -43 -26 -11 -20 19 -21 18 -35 -15 -8 -19 -10
-35 -5 -37 5 -2 9 -8 9 -12 0 -5 -15 -1 -33 10 l-33 19 -1 -33 c0 -19 4 -33
11 -32 6 0 12 -3 13 -9 1 -5 -8 -9 -19 -7 -21 2 -21 2 -3 -18 17 -19 17 -20
-6 -29 -29 -11 -50 3 -42 27 6 15 5 15 -10 4 -15 -13 -15 -15 0 -30 9 -10 26
-17 36 -17 27 0 31 -30 5 -32 -20 -2 -20 -1 -2 12 18 13 18 14 -4 8 -16 -4
-30 1 -47 17 -17 16 -28 19 -40 12 -16 -8 -16 -9 -1 -15 10 -4 15 -3 11 3 -3
6 -2 10 4 10 17 0 22 -19 11 -40 -6 -11 -19 -20 -29 -20 -12 0 -20 -9 -23 -24
-6 -32 8 -56 30 -50 9 3 6 -2 -8 -10 -27 -16 -55 -22 -30 -6 12 8 10 10 -9 10
-16 0 -21 -4 -18 -14 4 -10 1 -13 -9 -9 -10 4 -12 0 -7 -13 5 -13 3 -16 -10
-11 -9 3 -17 3 -17 -2 0 -5 9 -11 20 -14 11 -3 18 -1 14 4 -3 5 3 9 13 9 15 0
15 -2 3 -14 -20 -18 -80 -29 -80 -15 0 7 -11 9 -25 7 -13 -3 -27 0 -29 6 -3 6
-3 -6 0 -26 4 -26 2 -38 -6 -38 -7 0 -10 6 -7 13 4 10 -5 14 -29 14 -20 0 -30
-4 -22 -8 6 -4 16 -5 20 -3 13 8 9 -5 -9 -33 -10 -15 -12 -24 -5 -20 6 5 12 4
12 -1 0 -15 -26 -33 -35 -24 -4 4 0 -8 9 -25 9 -19 12 -33 6 -33 -6 0 -8 -12
-5 -29 3 -17 1 -33 -5 -36 -5 -3 -10 -11 -10 -16 0 -6 5 -7 10 -4 6 3 10 2 10
-4 0 -5 -4 -13 -10 -16 -14 -9 -12 -32 3 -38 18 -7 68 4 62 13 -3 5 4 6 15 3
12 -3 20 0 20 6 0 7 4 10 9 6 6 -3 14 3 20 12 7 12 11 13 11 5 0 -18 130 52
234 126 92 66 253 222 313 303 65 88 142 229 136 247 -4 9 -2 13 4 9 12 -7 63
122 90 227 25 100 30 197 29 608 -1 257 3 399 9 402 12 5 -177 5 -220 -1z
m-135 -424 c0 -6 -4 -7 -10 -4 -5 3 -10 11 -10 16 0 6 5 7 10 4 6 -3 10 -11
10 -16z m84 -87 c3 -5 -1 -9 -9 -9 -8 0 -12 4 -9 9 3 4 7 8 9 8 2 0 6 -4 9 -8z
m21 -32 c3 -5 1 -10 -4 -10 -6 0 -11 5 -11 10 0 6 2 10 4 10 3 0 8 -4 11 -10z
m-30 -20 c-3 -5 -12 -10 -18 -10 -7 0 -6 4 3 10 19 12 23 12 15 0z m0 -30 c-3
-5 -1 -10 6 -10 7 0 10 -3 6 -6 -9 -9 -28 6 -22 17 4 5 8 9 11 9 3 0 2 -4 -1
-10z m9 -175 c3 -8 1 -15 -4 -15 -6 0 -10 7 -10 15 0 8 2 15 4 15 2 0 6 -7 10
-15z m12 -46 c3 -6 1 -16 -6 -22 -10 -9 -12 -8 -7 5 4 11 0 18 -11 21 -16 4
-16 5 0 6 9 0 20 -4 24 -10z m-49 -61 c-3 -8 -6 -5 -6 6 -1 11 2 17 5 13 3 -3
4 -12 1 -19z m-515 -30 c-7 -7 -12 -8 -12 -2 0 6 3 14 7 17 3 4 9 5 12 2 2 -3
-1 -11 -7 -17z m535 -3 c-4 -8 -11 -15 -17 -15 -6 0 -6 7 2 20 14 22 24 19 15
-5z m-42 -183 c-3 -3 -11 0 -18 7 -9 10 -8 11 6 5 10 -3 15 -9 12 -12z m-40
-42 c-3 -5 -1 -10 6 -10 7 0 10 -3 6 -6 -9 -9 -28 6 -22 17 4 5 8 9 11 9 3 0
2 -4 -1 -10z m-25 -25 c0 -8 -4 -15 -8 -15 -5 0 -9 7 -9 15 0 8 4 15 9 15 4 0
8 -7 8 -15z m-30 -81 c0 -8 -19 -13 -24 -6 -3 5 1 9 9 9 8 0 15 -2 15 -3z
m-70 -44 c0 -5 -5 -10 -11 -10 -5 0 -7 5 -4 10 3 6 8 10 11 10 2 0 4 -4 4 -10z
m45 -42 c5 4 5 1 1 -6 -6 -10 -11 -10 -22 -1 -8 6 -14 14 -14 16 0 3 6 0 13
-6 8 -6 18 -7 22 -3z m-78 -121 c0 -7 -9 -13 -19 -13 -18 0 -18 1 -2 13 10 7
18 13 19 13 1 0 2 -6 2 -13z m-105 -62 c-2 -19 -8 -37 -12 -40 -5 -3 -6 4 -3
15 3 11 0 26 -6 34 -9 11 -9 15 1 19 23 9 24 8 20 -28z m35 9 c-3 -3 -12 -4
-19 -1 -8 3 -5 6 6 6 11 1 17 -2 13 -5z m-67 -8 c0 -2 -7 -9 -15 -16 -12 -10
-15 -10 -15 4 0 9 7 16 15 16 8 0 15 -2 15 -4z m-170 -161 c10 -12 10 -15 -4
-15 -9 0 -16 -7 -16 -15 0 -8 5 -15 10 -15 6 0 10 5 10 10 0 6 7 10 15 10 8 0
15 6 15 13 0 15 44 17 57 3 5 -5 3 -6 -4 -2 -8 4 -13 1 -13 -8 0 -10 -6 -13
-17 -9 -10 4 -14 2 -9 -5 6 -11 0 -12 -56 -13 -17 -1 -25 -5 -21 -12 3 -6 1
-7 -5 -3 -7 4 -12 1 -12 -8 0 -9 4 -16 10 -16 5 0 7 -6 4 -14 -3 -8 0 -17 6
-21 8 -5 5 -12 -9 -22 -12 -8 -18 -19 -15 -25 4 -6 1 -9 -5 -7 -7 3 -13 9 -13
14 0 6 -9 16 -19 23 -11 7 -19 18 -19 24 0 7 9 2 21 -11 22 -23 40 -24 47 -1
3 8 0 10 -8 5 -10 -6 -12 -4 -7 8 3 9 2 19 -3 22 -6 4 -10 1 -10 -5 0 -6 -4
-9 -8 -6 -4 2 -8 17 -7 33 0 23 4 28 25 28 20 0 26 6 28 28 4 30 14 34 32 12z
m80 -69 c0 -3 -4 -8 -10 -11 -5 -3 -10 -1 -10 4 0 6 5 11 10 11 6 0 10 -2 10
-4z m10 -20 c0 -2 -8 -10 -17 -17 -16 -13 -17 -12 -4 4 13 16 21 21 21 13z
m-86 -32 c3 -8 2 -12 -4 -9 -6 3 -10 10 -10 16 0 14 7 11 14 -7z m17 -27 c-10
-9 -11 -8 -5 6 3 10 9 15 12 12 3 -3 0 -11 -7 -18z m-20 -50 c-10 -9 -11 -8
-5 6 3 10 9 15 12 12 3 -3 0 -11 -7 -18z m-16 -36 c3 -5 2 -12 -3 -15 -5 -3
-9 1 -9 9 0 17 3 19 12 6z"/>
<path d="M2070 1000 c0 -5 5 -10 11 -10 5 0 7 5 4 10 -3 6 -8 10 -11 10 -2 0
-4 -4 -4 -10z"/>
<path d="M2185 2411 c-3 -5 -2 -12 3 -15 5 -3 9 1 9 9 0 17 -3 19 -12 6z"/>
<path d="M2126 2348 c3 -5 10 -6 15 -3 13 9 11 12 -6 12 -8 0 -12 -4 -9 -9z"/>
<path d="M2066 2165 c-9 -26 -7 -32 5 -12 6 10 9 21 6 23 -2 3 -7 -2 -11 -11z"/>
<path d="M2580 2176 c0 -2 7 -7 16 -10 8 -3 12 -2 9 4 -6 10 -25 14 -25 6z"/>
<path d="M2624 2132 c5 -9 3 -13 -5 -11 -35 4 -43 -1 -23 -17 10 -8 13 -13 7
-9 -7 3 -13 4 -13 1 0 -2 -3 -13 -7 -23 -7 -17 -6 -17 11 0 10 10 25 16 34 12
12 -4 12 -3 3 9 -10 11 -9 15 5 18 16 3 16 4 -1 18 -13 10 -16 11 -11 2z"/>
<path d="M2033 2103 c0 -9 4 -10 14 -2 7 6 13 12 13 14 0 1 -6 2 -13 2 -8 0
-14 -6 -14 -14z"/>
<path d="M2650 2059 c0 -5 -4 -8 -8 -5 -4 2 -13 -4 -19 -14 -11 -17 -10 -17
18 -3 16 8 27 19 24 24 -8 12 -15 11 -15 -2z"/>
<path d="M2685 2050 c-3 -5 -2 -10 4 -10 5 0 13 5 16 10 3 6 2 10 -4 10 -5 0
-13 -4 -16 -10z"/>
<path d="M2623 2004 c-3 -8 0 -21 7 -27 10 -9 11 -7 5 10 -5 18 -3 22 9 17 9
-3 16 -4 16 -1 0 14 -31 15 -37 1z"/>
<path d="M2115 1960 c-3 -5 -2 -10 4 -10 5 0 13 5 16 10 3 6 2 10 -4 10 -5 0
-13 -4 -16 -10z"/>
<path d="M2110 1910 c0 -5 5 -10 11 -10 5 0 7 5 4 10 -3 6 -8 10 -11 10 -2 0
-4 -4 -4 -10z"/>
<path d="M2031 1853 c0 -42 3 -52 9 -38 12 28 12 83 0 90 -6 4 -10 -16 -9 -52z"/>
<path d="M2556 1882 l-19 -27 24 22 c12 12 21 24 18 27 -2 2 -13 -8 -23 -22z"/>
<path d="M2060 1864 c0 -8 5 -12 10 -9 6 4 8 11 5 16 -9 14 -15 11 -15 -7z"/>
<path d="M2563 1792 c1 -12 6 -18 15 -15 7 3 10 9 5 12 -4 3 -11 10 -15 15 -4
4 -6 -1 -5 -12z"/>
<path d="M2595 1759 c-11 -16 -1 -19 13 -3 7 8 8 14 3 14 -5 0 -13 -5 -16 -11z"/>
<path d="M2565 1750 c-3 -5 -1 -10 4 -10 6 0 11 5 11 10 0 6 -2 10 -4 10 -3 0
-8 -4 -11 -10z"/>
<path d="M2566 1721 c9 -9 34 -9 34 -1 0 5 -9 8 -20 7 -10 -1 -17 -3 -14 -6z"/>
<path d="M2510 1460 c6 -11 13 -20 16 -20 2 0 0 9 -6 20 -6 11 -13 20 -16 20
-2 0 0 -9 6 -20z"/>
<path d="M2330 1354 c0 -9 -5 -12 -12 -8 -7 4 -8 3 -4 -5 6 -9 11 -9 22 0 7 6
11 15 8 20 -8 14 -14 11 -14 -7z"/>
<path d="M2370 1310 c0 -5 10 -10 23 -10 18 0 19 2 7 10 -19 13 -30 13 -30 0z"/>
<path d="M2200 1249 c0 -5 5 -7 10 -4 6 3 10 8 10 11 0 2 -4 4 -10 4 -5 0 -10
-5 -10 -11z"/>
<path d="M2220 1236 c0 -2 7 -7 16 -10 8 -3 12 -2 9 4 -6 10 -25 14 -25 6z"/>
<path d="M2236 1193 c-6 -14 -5 -15 5 -6 7 7 10 15 7 18 -3 3 -9 -2 -12 -12z"/>
<path d="M2140 1154 c0 -8 5 -12 10 -9 6 4 8 11 5 16 -9 14 -15 11 -15 -7z"/>
<path d="M2140 1108 c0 -12 3 -18 7 -15 3 4 12 2 20 -4 20 -18 15 -1 -7 21
l-20 20 0 -22z"/>
</g>
</svg>
